<svg width="239" height="38" viewBox="0 0 239 38" fill="none" xmlns="http://www.w3.org/2000/svg">
<g clip-path="url(#clip0_1_399)">
<path d="M41.1743 7.52075C39.2939 3.38924 35.4008 0.581925 31.0574 0.15818C27.535 -0.159629 24.0656 0.740829 21.2848 2.72713C21.2583 2.75362 21.2318 2.7801 21.2053 2.7801C21.1788 2.75362 21.1524 2.72713 21.1259 2.72713C18.3186 0.740829 14.8492 -0.159629 11.3533 0.184664C6.98339 0.581925 3.11672 3.38924 1.20987 7.52075C-0.829407 11.9436 -0.273242 17.0285 2.74594 21.8221C7.14229 28.8139 14.6638 33.7929 20.1989 36.7327L21.0729 37.1564V37.1829H21.0994H21.1259L22.1852 36.7592C27.7204 33.8194 35.2684 28.8404 39.6382 21.8486C42.6574 17.0285 43.2136 11.9436 41.1743 7.52075ZM36.0364 19.3062C32.4081 25.1062 26.1049 29.4231 21.1524 32.1774V32.098C16.1998 29.3701 9.97609 25.0532 6.37426 19.3062C4.22905 15.8897 3.8053 12.4203 5.12951 9.50705C6.34777 6.85865 8.94321 4.97828 11.724 4.71344C14.0281 4.50157 16.1998 5.00476 18.0008 6.03764C16.9414 7.54723 16.1998 9.24221 15.8291 11.0696C15.114 14.4331 15.6702 17.7171 17.2592 19.8094C18.2921 21.16 19.6957 21.9016 21.1788 21.9281C21.1788 21.9281 21.1788 21.9281 21.2053 21.9281C21.2053 21.9281 21.2053 21.9281 21.2318 21.9281C22.7149 21.9281 24.1186 21.16 25.1515 19.8094C26.767 17.7171 27.2967 14.4331 26.5816 11.0696C26.3168 9.79838 25.8665 8.58011 25.2574 7.4413C23.8802 8.20933 22.7414 9.29518 21.9204 10.6194C22.1058 11.0696 22.2382 11.5728 22.3441 12.076C22.8473 14.4861 22.3441 16.234 21.7615 16.9756C21.682 17.108 21.4437 17.3728 21.2053 17.3728C20.967 17.3728 20.7551 17.0815 20.6492 16.9756C20.0665 16.2075 19.5633 14.4596 20.0665 12.076C21.0464 7.33536 25.5222 4.26321 30.6601 4.73992C33.4674 5.00476 36.0629 6.88513 37.2547 9.53354C38.6054 12.4203 38.1551 15.8897 36.0364 19.3062Z" fill="#FF9C08"/>
<path d="M52.3745 25.239V6.47754H59.3162C60.8172 6.47754 62.059 6.7277 63.0417 7.228C64.0245 7.72831 64.757 8.41622 65.2395 9.29176C65.7219 10.1673 65.9631 11.15 65.9631 12.24C65.9631 13.2763 65.7309 14.2323 65.2663 15.1078C64.8017 15.9655 64.0781 16.6623 63.0953 17.1983C62.1126 17.7165 60.8529 17.9756 59.3162 17.9756H55.8052V25.239H52.3745ZM55.8052 15.1882H59.1018C60.299 15.1882 61.1566 14.9291 61.6748 14.4109C62.2109 13.8749 62.4789 13.1512 62.4789 12.24C62.4789 11.3108 62.2109 10.5872 61.6748 10.069C61.1566 9.53298 60.299 9.26496 59.1018 9.26496H55.8052V15.1882Z" fill="#090909"/>
<path d="M68.5742 25.2389V5.94141H72.0049V13.982C72.4516 13.2494 73.0502 12.6776 73.8006 12.2667C74.569 11.8378 75.4445 11.6234 76.4272 11.6234C78.0711 11.6234 79.3397 12.1416 80.2331 13.1779C81.1444 14.2143 81.6 15.7331 81.6 17.7343V25.2389H78.1962V18.0559C78.1962 16.9124 77.9639 16.0368 77.4993 15.4293C77.0526 14.8218 76.3379 14.518 75.3552 14.518C74.3903 14.518 73.5862 14.8575 72.943 15.5365C72.3176 16.2155 72.0049 17.1625 72.0049 18.3775V25.2389H68.5742Z" fill="#090909"/>
<path d="M86.7299 9.88131C86.1045 9.88131 85.5863 9.6937 85.1754 9.31847C84.7823 8.94324 84.5857 8.46974 84.5857 7.89796C84.5857 7.32619 84.7823 6.86162 85.1754 6.50426C85.5863 6.12903 86.1045 5.94141 86.7299 5.94141C87.3553 5.94141 87.8645 6.12903 88.2576 6.50426C88.6686 6.86162 88.8741 7.32619 88.8741 7.89796C88.8741 8.46974 88.6686 8.94324 88.2576 9.31847C87.8645 9.6937 87.3553 9.88131 86.7299 9.88131ZM85.0146 25.2389V11.945H88.4452V25.2389H85.0146Z" fill="#090909"/>
<path d="M92.026 25.2389V5.94141H95.4567V25.2389H92.026Z" fill="#090909"/>
<path d="M103.545 25.5611C102.402 25.5611 101.464 25.3824 100.731 25.025C99.9984 24.6498 99.4535 24.1584 99.0961 23.5509C98.7387 22.9434 98.5601 22.2734 98.5601 21.5408C98.5601 20.3079 99.0425 19.3073 100.007 18.5389C100.972 17.7706 102.42 17.3865 104.349 17.3865H107.726V17.0648C107.726 16.1536 107.467 15.4835 106.949 15.0547C106.431 14.6259 105.788 14.4114 105.019 14.4114C104.323 14.4114 103.715 14.5812 103.197 14.9207C102.679 15.2423 102.357 15.7247 102.232 16.368H98.8817C98.971 15.4031 99.2927 14.5633 99.8466 13.8486C100.418 13.1339 101.151 12.5889 102.044 12.2137C102.938 11.8206 103.938 11.624 105.046 11.624C106.94 11.624 108.432 12.0975 109.522 13.0445C110.612 13.9915 111.157 15.3316 111.157 17.0648V25.2395H108.236L107.914 23.0953C107.521 23.81 106.967 24.3997 106.252 24.8642C105.555 25.3288 104.653 25.5611 103.545 25.5611ZM104.323 22.8809C105.305 22.8809 106.065 22.5593 106.601 21.916C107.155 21.2728 107.503 20.4776 107.646 19.5306H104.725C103.813 19.5306 103.161 19.7004 102.768 20.0399C102.375 20.3615 102.178 20.7635 102.178 21.246C102.178 21.7641 102.375 22.1662 102.768 22.452C103.161 22.7379 103.679 22.8809 104.323 22.8809Z" fill="#090909"/>
<path d="M114.431 25.2395V11.9456H117.459L117.727 14.197C118.138 13.4108 118.728 12.7854 119.496 12.3209C120.283 11.8563 121.203 11.624 122.257 11.624C123.901 11.624 125.178 12.1422 126.09 13.1785C127.001 14.2149 127.457 15.7337 127.457 17.7349V25.2395H124.026V18.0565C124.026 16.913 123.794 16.0374 123.329 15.4299C122.865 14.8224 122.141 14.5186 121.158 14.5186C120.193 14.5186 119.398 14.8581 118.773 15.5371C118.165 16.2161 117.862 17.1631 117.862 18.3781V25.2395H114.431Z" fill="#090909"/>
<path d="M136.66 25.2394C135.267 25.2394 134.15 24.8999 133.31 24.2209C132.47 23.5419 132.05 22.3358 132.05 20.6026V14.8134H129.772V11.9455H132.05L132.452 8.38086H135.481V11.9455H139.073V14.8134H135.481V20.6294C135.481 21.2727 135.615 21.7194 135.883 21.9695C136.169 22.2018 136.651 22.3179 137.33 22.3179H138.992V25.2394H136.66Z" fill="#090909"/>
<path d="M142.018 25.2389V5.94141H145.449V13.982C145.895 13.2494 146.494 12.6776 147.244 12.2667C148.013 11.8378 148.888 11.6234 149.871 11.6234C151.515 11.6234 152.784 12.1416 153.677 13.1779C154.588 14.2143 155.044 15.7331 155.044 17.7343V25.2389H151.64V18.0559C151.64 16.9124 151.408 16.0368 150.943 15.4293C150.496 14.8218 149.782 14.518 148.799 14.518C147.834 14.518 147.03 14.8575 146.387 15.5365C145.761 16.2155 145.449 17.1625 145.449 18.3775V25.2389H142.018Z" fill="#090909"/>
<path d="M158.324 25.2395V11.9456H161.38L161.701 14.4382C162.184 13.5806 162.836 12.9016 163.658 12.4013C164.498 11.8831 165.481 11.624 166.606 11.624V15.2423H165.641C164.891 15.2423 164.221 15.3584 163.631 15.5907C163.042 15.823 162.577 16.225 162.238 16.7968C161.916 17.3686 161.755 18.1637 161.755 19.1822V25.2395H158.324Z" fill="#090909"/>
<path d="M175.094 25.5611C173.808 25.5611 172.646 25.2663 171.61 24.6766C170.592 24.087 169.779 23.274 169.171 22.2376C168.581 21.1834 168.287 19.9684 168.287 18.5926C168.287 17.2167 168.59 16.0106 169.198 14.9743C169.805 13.9201 170.618 13.0981 171.637 12.5085C172.673 11.9188 173.835 11.624 175.121 11.624C176.39 11.624 177.533 11.9188 178.552 12.5085C179.588 13.0981 180.401 13.9201 180.991 14.9743C181.598 16.0106 181.902 17.2167 181.902 18.5926C181.902 19.9684 181.598 21.1834 180.991 22.2376C180.401 23.274 179.588 24.087 178.552 24.6766C177.515 25.2663 176.363 25.5611 175.094 25.5611ZM175.094 22.5861C175.988 22.5861 176.765 22.2555 177.426 21.5944C178.087 20.9154 178.418 19.9148 178.418 18.5926C178.418 17.2703 178.087 16.2786 177.426 15.6175C176.765 14.9385 175.997 14.5991 175.121 14.5991C174.21 14.5991 173.424 14.9385 172.763 15.6175C172.119 16.2786 171.798 17.2703 171.798 18.5926C171.798 19.9148 172.119 20.9154 172.763 21.5944C173.424 22.2555 174.201 22.5861 175.094 22.5861Z" fill="#090909"/>
<path d="M184.969 31.1359V11.9456H188.025L188.4 13.8486C188.829 13.2589 189.392 12.7408 190.089 12.2941C190.803 11.8474 191.724 11.624 192.849 11.624C194.1 11.624 195.217 11.9278 196.199 12.5353C197.182 13.1428 197.959 13.9737 198.531 15.0279C199.103 16.0821 199.389 17.2793 199.389 18.6194C199.389 19.9595 199.103 21.1566 198.531 22.2108C197.959 23.2472 197.182 24.0691 196.199 24.6766C195.217 25.2663 194.1 25.5611 192.849 25.5611C191.849 25.5611 190.973 25.3735 190.223 24.9982C189.472 24.623 188.865 24.0959 188.4 23.4169V31.1359H184.969ZM192.126 22.5593C193.215 22.5593 194.118 22.193 194.833 21.4604C195.547 20.7278 195.905 19.7808 195.905 18.6194C195.905 17.4579 195.547 16.502 194.833 15.7515C194.118 15.0011 193.215 14.6259 192.126 14.6259C191.018 14.6259 190.106 15.0011 189.392 15.7515C188.695 16.4841 188.346 17.4311 188.346 18.5926C188.346 19.754 188.695 20.7099 189.392 21.4604C190.106 22.193 191.018 22.5593 192.126 22.5593Z" fill="#090909"/>
<path d="M202.911 31.1356L205.993 24.3547H205.189L200.017 11.9453H203.742L207.468 21.2993L211.354 11.9453H214.999L206.556 31.1356H202.911Z" fill="#090909"/>
<path d="M222.797 25.239L228.667 15.751L222.717 6.47754H226.657L230.865 13.0172L234.724 6.47754H238.584L232.714 15.9118L238.718 25.239H234.778L230.516 18.6189L226.657 25.239H222.797Z" fill="#090909"/>
</g>
<defs>
<clipPath id="clip0_1_399">
<rect width="239" height="38" fill="white"/>
</clipPath>
</defs>
</svg>
